<svg width="19" height="26" viewBox="0 0 19 26" fill="none" xmlns="http://www.w3.org/2000/svg">
<path d="M7.51339 14.9428H11.0527V18.4821H7.51339V14.9428Z" fill="#212121" stroke="black" stroke-width="0.174604"/>
<path d="M3.79647 18.6557H7.33579V22.195H3.79647L3.79647 18.6557Z" fill="#212121" stroke="black" stroke-width="0.174604"/>
<path d="M11.2307 11.2318H14.77V14.7712H11.2307V11.2318Z" fill="white" stroke="black" stroke-width="0.174604"/>
<path d="M11.2276 18.4881L11.2276 7.5209H12.9611L18.4446 13.0045L12.9611 18.4881H11.2276Z" fill="white" stroke="black" stroke-width="0.174604"/>
<path d="M11.2273 18.4821V14.9428H14.7666V16.5649L12.8494 18.4821H11.2273Z" fill="white" stroke="black" stroke-width="0.174604"/>
<path d="M14.7669 11.0602H11.2276V7.5209H12.8496L14.7669 9.43814V11.0602Z" fill="white" stroke="black" stroke-width="0.174604"/>
<path d="M7.5104 22.195V18.6557H11.0497V20.2777L9.13248 22.195H7.5104Z" fill="white" stroke="black" stroke-width="0.174604"/>
<path d="M3.80385 25.9118L3.80385 22.3725H7.34318V23.9945L5.42594 25.9118H3.80385Z" fill="white" stroke="black" stroke-width="0.174604"/>
<path d="M0.0873019 25.9118L0.0873019 22.3725H3.62662V23.9945L1.70938 25.9118H0.0873019Z" fill="#212121" stroke="black" stroke-width="0.174604"/>
<path d="M3.62662 18.6557L3.62662 22.195H0.0873019L0.0873019 20.5728C0.830461 19.8257 1.2573 19.3988 2.00441 18.6557H3.62662Z" fill="#212121" stroke="black" stroke-width="0.174604"/>
<path d="M11.05 7.33756H7.51064V3.79824H9.13272L11.05 5.71548V7.33756Z" fill="white" stroke="black" stroke-width="0.174604"/>
<path d="M7.34318 3.62662L3.80385 3.62662L3.80385 0.0873019L5.42607 0.0873019C6.17318 0.830461 6.60002 1.2573 7.34318 2.00441V3.62662Z" fill="white" stroke="black" stroke-width="0.174604"/>
<path d="M3.62662 3.62662L0.0873019 3.62662L0.0873019 0.0873019L1.70952 0.0873019C2.45662 0.830461 2.88346 1.2573 3.62662 2.00441V3.62662Z" fill="#212121" stroke="black" stroke-width="0.174604"/>
<path d="M0.0873019 3.79824L3.62662 3.79824L3.62662 7.33756H2.00454L0.0873019 5.42032L0.0873019 3.79824Z" fill="#212121" stroke="black" stroke-width="0.174604"/>
<path d="M3.80385 7.5209H7.34318V11.0602H5.72109L3.80385 9.14298V7.5209Z" fill="#212121" stroke="black" stroke-width="0.174604"/>
<path d="M7.34318 14.9428V18.4821H3.80385V16.86L5.72109 14.9428H7.34318Z" fill="#212121" stroke="black" stroke-width="0.174604"/>
<path d="M7.51364 7.5209H11.053V11.0602H7.51364V7.5209Z" fill="#212121" stroke="black" stroke-width="0.174604"/>
<path d="M11.2307 11.2318H14.77V14.7712H11.2307V11.2318Z" fill="#212121" stroke="black" stroke-width="0.174604"/>
<path d="M3.79672 3.79824L7.33604 3.79824V7.33756H3.79672L3.79672 3.79824Z" fill="#212121" stroke="black" stroke-width="0.174604"/>
</svg>
