<svg width="19" height="26" viewBox="0 0 19 26" fill="none" xmlns="http://www.w3.org/2000/svg">
<path d="M11.0547 11.0553L7.5154 11.0553L7.5154 7.51596L11.0547 7.51596L11.0547 11.0553Z" fill="#212121" stroke="black" stroke-width="0.174604"/>
<path d="M14.7716 7.34434L11.2323 7.34434L11.2323 3.80502L14.7716 3.80502L14.7716 7.34434Z" fill="#212121" stroke="black" stroke-width="0.174604"/>
<path d="M7.33756 14.7682L3.79824 14.7682L3.79824 11.2288L7.33756 11.2288L7.33756 14.7682Z" fill="white" stroke="black" stroke-width="0.174604"/>
<path d="M7.34056 7.51194L7.34055 18.4791L5.60706 18.4791L0.12347 12.9955L5.60706 7.51194L7.34056 7.51194Z" fill="white" stroke="black" stroke-width="0.174604"/>
<path d="M7.3408 7.51596L7.3408 11.0553L3.80148 11.0553L3.80148 9.43319L5.71872 7.51596L7.3408 7.51596Z" fill="white" stroke="black" stroke-width="0.174604"/>
<path d="M3.80123 14.9398L7.34055 14.9398L7.34055 18.4791L5.71847 18.4791L3.80123 16.5619L3.80123 14.9398Z" fill="white" stroke="black" stroke-width="0.174604"/>
<path d="M11.0577 3.80502L11.0577 7.34434L7.5184 7.34434L7.5184 5.72226L9.43564 3.80502L11.0577 3.80502Z" fill="white" stroke="black" stroke-width="0.174604"/>
<path d="M14.7643 0.0882208L14.7643 3.62754L11.2249 3.62754L11.2249 2.00546L13.1422 0.0882207L14.7643 0.0882208Z" fill="white" stroke="black" stroke-width="0.174604"/>
<path d="M18.4808 0.0882208L18.4808 3.62754L14.9415 3.62754L14.9415 2.00546L16.8587 0.0882207L18.4808 0.0882208Z" fill="#212121" stroke="black" stroke-width="0.174604"/>
<path d="M14.9415 7.34434L14.9415 3.80502L18.4808 3.80502L18.4808 5.42723C17.7377 6.17434 17.3108 6.60118 16.5637 7.34434L14.9415 7.34434Z" fill="#212121" stroke="black" stroke-width="0.174604"/>
<path d="M7.51815 18.6624L11.0575 18.6624L11.0575 22.2018L9.43539 22.2018L7.51815 20.2845L7.51815 18.6624Z" fill="white" stroke="black" stroke-width="0.174604"/>
<path d="M11.2249 22.3734L14.7643 22.3734L14.7643 25.9127L13.142 25.9127C12.3949 25.1695 11.9681 24.7427 11.2249 23.9956L11.2249 22.3734Z" fill="white" stroke="black" stroke-width="0.174604"/>
<path d="M14.9415 22.3734L18.4808 22.3734L18.4808 25.9127L16.8586 25.9127C16.1115 25.1695 15.6847 24.7427 14.9415 23.9956L14.9415 22.3734Z" fill="#212121" stroke="black" stroke-width="0.174604"/>
<path d="M18.4808 22.2018L14.9415 22.2018L14.9415 18.6624L16.5636 18.6624L18.4808 20.5797L18.4808 22.2018Z" fill="#212121" stroke="black" stroke-width="0.174604"/>
<path d="M14.7643 18.4791L11.2249 18.4791L11.2249 14.9398L12.847 14.9398L14.7643 16.857L14.7643 18.4791Z" fill="#212121" stroke="black" stroke-width="0.174604"/>
<path d="M11.2249 11.0553L11.2249 7.51595L14.7643 7.51596L14.7643 9.13804L12.847 11.0553L11.2249 11.0553Z" fill="#212121" stroke="black" stroke-width="0.174604"/>
<path d="M11.0545 18.4791L7.51516 18.4791L7.51516 14.9398L11.0545 14.9398L11.0545 18.4791Z" fill="#212121" stroke="black" stroke-width="0.174604"/>
<path d="M7.33756 14.7682L3.79824 14.7682L3.79824 11.2288L7.33756 11.2288L7.33756 14.7682Z" fill="#212121" stroke="black" stroke-width="0.174604"/>
<path d="M14.7714 22.2018L11.2321 22.2018L11.2321 18.6624L14.7714 18.6624L14.7714 22.2018Z" fill="#212121" stroke="black" stroke-width="0.174604"/>
</svg>
