<?xml version="1.0" encoding="UTF-8"?>
<svg id="Layer_2" data-name="Layer 2" xmlns="http://www.w3.org/2000/svg" viewBox="0 0 299.67 158">
  <g id="Layer_4" data-name="Layer 4">
    <g id="freysmiles_logo" data-name="freysmiles logo">
      <g id="s">
        <path d="M180.75,0h37.96c.55,0,1,.45,1,1V74.96c0,.55-.45,1-1,1h-37.96c-20.42,0-37-16.58-37-37v-1.96C143.75,16.58,160.33,0,180.75,0Z"/>
        <path d="M224.71,0h37.96C283.09,0,299.67,16.58,299.67,37v37.96c0,.55-.45,1-1,1h-37.96c-20.42,0-37-16.58-37-37V1C223.71,.45,224.16,0,224.71,0Z"/>
        <path d="M144.75,79.96h37.96c20.42,0,37,16.58,37,37v37.96c0,.55-.45,1-1,1h-37.96c-20.42,0-37-16.58-37-37v-37.96c0-.55,.45-1,1-1Z"/>
        <path d="M224.71,79.96h37.96c20.42,0,37,16.58,37,37v1.96c0,20.42-16.58,37-37,37h-37.96c-.55,0-1-.45-1-1V80.96c0-.55,.45-1,1-1Z"/>
      </g>
      <g id="f">
        <path d="M25,0h0C38.8,0,50,11.2,50,25v24c0,.55-.45,1-1,1H25C11.2,50,0,38.8,0,25H0C0,11.2,11.2,0,25,0Z"/>
        <path d="M79.37,0h30C123.17,0,134.38,11.2,134.38,25h0c0,13.8-11.2,25-25,25H55.38c-.55,0-1-.45-1-1V25C54.38,11.2,65.58,0,79.37,0Z"/>
        <path d="M25,54h24c.55,0,1,.45,1,1v24c0,13.8-11.2,25-25,25h0C11.2,104,0,92.8,0,79H0C0,65.2,11.2,54,25,54Z"/>
        <path d="M25,108h24c.55,0,1,.45,1,1v24c0,13.8-11.2,25-25,25H1C.45,158,0,157.55,0,157v-24C0,119.2,11.2,108,25,108Z"/>
        <path d="M55.38,54h24c13.8,0,25,11.2,25,25h0c0,13.8-11.2,25-25,25h-24c-.55,0-1-.45-1-1V55c0-.55,.45-1,1-1Z"/>
      </g>
    </g>
  </g>
</svg>