<?xml version="1.0" encoding="UTF-8"?>
<svg id="Layer_2" data-name="Layer 2" xmlns="http://www.w3.org/2000/svg" viewBox="0 0 16 16">
  <defs>
    <style>
      .cls-1 {
        fill: #fff;
      }
    </style>
  </defs>
  <g id="Layer_4" data-name="Layer 4">
    <g>
      <rect class="cls-1" width="16" height="16"/>
      <g>
        <g>
          <path d="M3,4.75h0c.55,0,1,.45,1,1v1h-1c-.55,0-1-.45-1-1h0c0-.55.45-1,1-1Z"/>
          <path d="M3,7h1v1c0,.55-.45,1-1,1h0c-.55,0-1-.45-1-1h0c0-.55.45-1,1-1Z"/>
          <path d="M3,9.25h1v1c0,.55-.45,1-1,1h-1v-1c0-.55.45-1,1-1Z"/>
          <path d="M5.25,4.75h1c.55,0,1,.45,1,1h0c0,.55-.45,1-1,1h-2v-1c0-.55.45-1,1-1Z"/>
          <path d="M4.25,7h1c.55,0,1,.45,1,1h0c0,.55-.45,1-1,1h-1v-2h0Z"/>
        </g>
        <g>
          <path d="M9.06,4.75h1.56v3.12h-1.56c-.86,0-1.56-.7-1.56-1.56h0c0-.86.7-1.56,1.56-1.56Z"/>
          <path d="M10.87,4.75h1.56c.86,0,1.56.7,1.56,1.56v1.56h-1.56c-.86,0-1.56-.7-1.56-1.56v-1.56h0Z"/>
          <path d="M7.5,8.12h1.56c.86,0,1.56.7,1.56,1.56v1.56h-1.56c-.86,0-1.56-.7-1.56-1.56v-1.56h0Z"/>
          <path d="M10.87,8.12h1.56c.86,0,1.56.7,1.56,1.56h0c0,.86-.7,1.56-1.56,1.56h-1.56v-3.13h0Z"/>
        </g>
      </g>
    </g>
  </g>
</svg>